<svg xmlns="http://www.w3.org/2000/svg" xmlns:xlink="http://www.w3.org/1999/xlink" width="397.423" height="426.027" viewBox="0 0 397.423 426.027"><defs><style>.a{opacity:0.16;fill:url(#a);}.b{fill:url(#b);}.c{fill:url(#c);}.d{fill:url(#d);}.e{fill:#00ac5f;}.f{fill:#14e65a;}.g{fill:#0c0c0c;}.h{fill:#1e1e1e;}.i{fill:#3a3a3a;}.j{fill:#008d4d;}.k{fill:#005730;}.l{fill:url(#e);}.m{fill:url(#f);}</style><linearGradient id="a" x1="0.997" y1="0.425" x2="-0.003" y2="0.001" gradientUnits="objectBoundingBox"><stop offset="0"/><stop offset="1" stop-color="#04d074"/></linearGradient><linearGradient id="b" x1="1.723" y1="1.041" x2="1.695" y2="-0.743" xlink:href="#a"/><linearGradient id="c" x1="1.007" y1="0.882" x2="0.092" y2="-0.031" gradientUnits="objectBoundingBox"><stop offset="0" stop-color="#04d074"/><stop offset="1" stop-color="#02683a"/></linearGradient><linearGradient id="d" x1="0.384" y1="0.513" x2="-0.345" y2="0.824" xlink:href="#a"/><linearGradient id="e" x1="0.526" y1="0.521" x2="0.5" y2="1" gradientUnits="objectBoundingBox"><stop offset="0" stop-color="#04d074" stop-opacity="0"/><stop offset="1" stop-color="#04d074" stop-opacity="0.659"/></linearGradient><linearGradient id="f" x1="1.674" y1="0.66" x2="-1.156" y2="0.947" gradientUnits="objectBoundingBox"><stop offset="0" stop-color="#80ffc6" stop-opacity="0"/><stop offset="0.787" stop-color="#80ffc6" stop-opacity="0.992"/><stop offset="1" stop-color="#80ffc6"/></linearGradient></defs><g transform="translate(-491 -359.092)"><g transform="translate(13.525 -5930.646)"><path class="a" d="M0,179.038V0L228.3,132.44V311.477Z" transform="translate(870.328 6518.054) rotate(120)"/><path class="b" d="M0,9.486V190.651l16.508-9.486V0Z" transform="translate(650.837 6578.86) rotate(120)"/><path class="c" d="M0,9.947l223.752,129.08,16.522-9.49L16.522,0Z" transform="translate(874.897 6449.857) rotate(120)"/><path class="d" d="M0,181.165V0L223.778,129.111V310.276Z" transform="translate(866.324 6444.876) rotate(120)"/><path class="e" d="M0,130.923V0L33.665,19.357V150.281Z" transform="translate(818.126 6446.373) rotate(120)"/><path class="f" d="M0,124.2.009,0,27.722,15.983l-.01,124.2Z" transform="translate(812.232 6449.832) rotate(120)"/><g transform="translate(687.244 6430.536) rotate(120)"><path class="g" d="M0,2.41V39.557l4.248-2.41V0Z" transform="translate(32.163 18.62)"/><path class="h" d="M0,2.5,32.163,21.031l4.248-2.41L4.248,0Z"/><path class="i" d="M0,37.147V0L32.163,18.527V55.674Z" transform="translate(0 2.503)"/></g><g transform="translate(723.269 6451.392) rotate(120)"><path class="g" d="M0,2.41V39.557l4.248-2.41V0Z" transform="translate(32.163 18.62)"/><path class="h" d="M0,2.5,32.163,21.031l4.248-2.41L4.248,0Z"/><path class="i" d="M0,37.147V0L32.163,18.527V55.674Z" transform="translate(0 2.503)"/></g><g transform="translate(759.294 6472.249) rotate(120)"><path class="g" d="M0,2.41V39.557l4.248-2.41V0Z" transform="translate(32.163 18.62)"/><path class="h" d="M0,2.5,32.163,21.031l4.248-2.41L4.248,0Z"/><path class="i" d="M0,37.147V0L32.163,18.527V55.674Z" transform="translate(0 2.503)"/></g><g transform="translate(651.219 6451.392) rotate(120)"><path class="g" d="M0,2.41V39.557l4.248-2.41V0Z" transform="translate(32.163 18.62)"/><path class="h" d="M0,2.5,32.163,21.031l4.248-2.41L4.248,0Z"/><path class="i" d="M0,37.147V0L32.163,18.527V55.674Z" transform="translate(0 2.503)"/></g><g transform="translate(687.244 6472.249) rotate(120)"><path class="g" d="M0,2.41V39.557l4.248-2.41V0Z" transform="translate(32.163 18.62)"/><path class="h" d="M0,2.5,32.163,21.031l4.248-2.41L4.248,0Z"/><path class="i" d="M0,37.147V0L32.163,18.527V55.674Z" transform="translate(0 2.503)"/></g><g transform="translate(615.194 6472.249) rotate(120)"><path class="g" d="M0,2.41V39.557l4.248-2.41V0Z" transform="translate(32.163 18.62)"/><path class="h" d="M0,2.5,32.163,21.031l4.248-2.41L4.248,0Z"/><path class="i" d="M0,37.147V0L32.163,18.527V55.674Z" transform="translate(0 2.503)"/></g><g transform="translate(651.219 6493.105) rotate(120)"><path class="g" d="M0,2.41V39.557l4.248-2.41V0Z" transform="translate(32.163 18.62)"/><path class="h" d="M0,2.5,32.163,21.031l4.248-2.41L4.248,0Z"/><path class="i" d="M0,37.147V0L32.163,18.527V55.674Z" transform="translate(0 2.503)"/></g><g transform="translate(618.655 6453.638)"><g transform="translate(104.614 39.469) rotate(120)"><path class="j" d="M0,2.5,68.256,41.789l4.248-2.41L4.248,0Z" transform="translate(0 0)"/><path class="f" d="M0,37.147V0L68.269,39.287V76.434Z" transform="translate(0 2.503)"/></g><g transform="translate(36.382 78.869) rotate(120)"><path class="k" d="M0,2.41V39.557l4.248-2.41V0Z" transform="translate(0 0)"/></g></g><path class="l" d="M12396.41,19365.189l68.15-39.469.046,185.055-68.233,39.424ZM12364.2,19531.6l.038-185.012,32.171,18.576-.037,185.008Z" transform="translate(-11743.459 -13013.99)"/><g transform="translate(767.122 6437.694)"><path d="M22.152,3.592c-.04-.02-.08-.06-.12-.08s-.06-.04-.1-.06a14.676,14.676,0,0,0-4.455-2.067A15.863,15.863,0,0,0,12.4.823,14.174,14.174,0,0,0,7.565,1.886L4.876,0,3.231,1.184,5.618,2.849c-.181.12-.462.3-.823.562s-.622.462-.783.582L1.645,2.328,0,3.491,2.689,5.378A6.263,6.263,0,0,0,1.264,8.829a6.089,6.089,0,0,0,.863,3.592,10.011,10.011,0,0,0,2.97,3.15c.02.02.06.04.08.06a.352.352,0,0,1,.1.08,15.015,15.015,0,0,0,4.314,2.027,13.962,13.962,0,0,0,4.856.5l-.08-2.709a10.119,10.119,0,0,1-6.26-1.645c-.04-.02-.06-.04-.1-.06-.04-.04-.1-.06-.14-.1a5.975,5.975,0,0,1-2.287-2.869A3.988,3.988,0,0,1,5.9,7.625l6.762,4.735,1.645-1.184L7.1,6.16c.321-.261.562-.462.742-.6a7.965,7.965,0,0,1,.843-.542l7.2,5.057,1.645-1.184L10.775,4.134a10.478,10.478,0,0,1,4.535-.281,9.8,9.8,0,0,1,4.073,1.585.849.849,0,0,0,.14.1.352.352,0,0,1,.1.08,4.976,4.976,0,0,1,2.388,4.394l3.812.04a5.4,5.4,0,0,0-.783-3.431,10.073,10.073,0,0,0-2.889-3.03"/></g><path class="m" d="M0,130.923V0L33.665,19.357V150.281Z" transform="translate(818.126 6446.373) rotate(120)"/></g></g></svg>